<svg xmlns="http://www.w3.org/2000/svg">

<!-- Original SVG -->
<symbol id="icon-notes" viewBox="0 0 32 32">
<path fill="#d2dff3" style="fill: var(--color1, #d2dff3)" d="M22.57 0.734c0.062-0.001 0.124-0.003 0.188-0.004 0.959-0.005 1.673 0.378 2.366 1.020 0.563 0.595 0.897 1.363 0.883 2.184-0.001 0.043-0.001 0.085-0.002 0.13-0.001 0.104-0.004 0.208-0.006 0.312 0.036-0.003 0.072-0.006 0.109-0.010 0.378-0.033 0.756-0.065 1.135-0.097 0.141-0.012 0.282-0.024 0.422-0.036 0.203-0.018 0.407-0.035 0.61-0.052 0.062-0.005 0.124-0.011 0.188-0.017 1.111-0.093 1.111-0.093 1.414 0.056 0.258 0.333 0.27 0.794 0.303 1.202 0.005 0.052 0.009 0.104 0.014 0.158 0.015 0.172 0.029 0.344 0.044 0.516 0.011 0.122 0.021 0.244 0.032 0.366 0.028 0.322 0.055 0.643 0.083 0.965 0.027 0.319 0.055 0.639 0.082 0.958 0.032 0.375 0.065 0.75 0.097 1.124 0.083 0.962 0.169 1.924 0.258 2.885 0.063 0.69 0.124 1.381 0.185 2.071 0.004 0.042 0.007 0.084 0.011 0.128 0.196 2.213 0.383 4.427 0.57 6.641 0.006 0.070 0.012 0.14 0.018 0.212 0.033 0.391 0.066 0.781 0.099 1.172 0.010 0.118 0.020 0.235 0.030 0.353 0.027 0.31 0.052 0.62 0.076 0.93 0.005 0.066 0.011 0.131 0.016 0.199 0.010 0.126 0.020 0.252 0.029 0.378 0.005 0.057 0.009 0.113 0.014 0.172 0.004 0.050 0.008 0.099 0.012 0.151 0.026 0.149 0.079 0.255 0.149 0.387 0.015 0.149 0.015 0.149 0.014 0.315 0 0.063-0 0.125-0 0.19-0.001 0.067-0.001 0.134-0.002 0.203-0 0.104-0 0.104-0.001 0.209-0.001 0.22-0.002 0.441-0.004 0.661-0.001 0.149-0.001 0.299-0.002 0.448-0.001 0.366-0.003 0.732-0.006 1.099-0.243 0.132-0.437 0.212-0.712 0.236-0.102 0.009-0.102 0.009-0.207 0.019-0.076 0.006-0.151 0.012-0.229 0.019-0.126 0.011-0.253 0.023-0.379 0.034-0.147 0.013-0.294 0.026-0.441 0.038-0.401 0.034-0.801 0.070-1.202 0.107-0.674 0.061-1.349 0.121-2.023 0.18-0.34 0.030-0.679 0.061-1.019 0.092-0.063 0.006-0.126 0.012-0.19 0.018-0.117 0.011-0.234 0.022-0.35 0.033-0.271 0.025-0.537 0.043-0.81 0.037-0.003 0.047-0.006 0.095-0.009 0.143-0.013 0.215-0.028 0.431-0.042 0.646-0.007 0.112-0.007 0.112-0.013 0.225-0.005 0.072-0.010 0.144-0.015 0.218-0.004 0.066-0.009 0.132-0.013 0.2-0.045 0.264-0.114 0.49-0.338 0.652-0.518 0.156-1.171 0.023-1.703-0.015-0.074-0.005-0.149-0.010-0.226-0.015-0.45-0.031-0.897-0.076-1.345-0.13-0.516-0.063-1.033-0.113-1.551-0.163-0.166-0.016-0.333-0.032-0.499-0.049-0.558-0.054-1.113-0.097-1.673-0.119-0.46-0.019-0.907-0.060-1.364-0.122-0.53-0.070-1.065-0.107-1.597-0.15-0.201-0.017-0.403-0.034-0.604-0.051-1.117-0.093-2.183-0.099-3.297 0.011-0.532 0.052-1.064 0.101-1.599 0.115-0.073 0.002-0.146 0.004-0.221 0.006-0.256-0.035-0.386-0.106-0.579-0.278-0.055-0.203-0.055-0.203-0.063-0.375-0.063-0.003-0.126-0.007-0.192-0.010-0.629-0.035-1.257-0.080-1.885-0.134-0.148-0.013-0.296-0.025-0.444-0.037-0.096-0.008-0.192-0.016-0.288-0.024-0.043-0.004-0.087-0.007-0.131-0.011-0.201-0.017-0.401-0.038-0.602-0.064-0.367-0.047-0.735-0.073-1.104-0.103-0.162-0.013-0.325-0.027-0.487-0.040-0.255-0.021-0.51-0.042-0.765-0.063-0.247-0.020-0.494-0.040-0.74-0.061-0.076-0.006-0.153-0.012-0.232-0.018-0.071-0.006-0.142-0.012-0.215-0.018-0.062-0.005-0.125-0.010-0.189-0.015-0.162-0.026-0.273-0.070-0.414-0.151-0.002-0.39-0.003-0.781-0.003-1.172-0-0.133-0.001-0.266-0.001-0.399-0.001-0.191-0.001-0.381-0.001-0.572-0-0.060-0.001-0.12-0.001-0.181 0-0.055 0-0.11 0-0.167-0-0.049-0-0.097-0-0.148 0.008-0.112 0.008-0.112 0.070-0.174 0.014-0.101 0.025-0.203 0.033-0.305 0.005-0.063 0.011-0.125 0.016-0.19 0.005-0.066 0.011-0.132 0.016-0.2 0.006-0.065 0.011-0.129 0.017-0.196 0.023-0.267 0.045-0.532 0.041-0.8 0-0.184 0-0.184 0.063-0.372 0.013-0.097 0.023-0.194 0.031-0.291 0.005-0.060 0.011-0.12 0.016-0.181 0.006-0.066 0.011-0.131 0.017-0.199 0.006-0.069 0.012-0.138 0.019-0.209 0.020-0.229 0.040-0.459 0.060-0.688 0.014-0.159 0.028-0.319 0.042-0.478 0.029-0.335 0.058-0.669 0.087-1.004 0.033-0.386 0.067-0.771 0.101-1.157 0.033-0.372 0.065-0.744 0.097-1.116 0.014-0.158 0.027-0.315 0.041-0.473 0.019-0.221 0.038-0.442 0.057-0.664 0.006-0.065 0.011-0.129 0.017-0.196 0.029-0.348 0.043-0.69 0.035-1.040 0.004-0.117 0.004-0.117 0.067-0.18 0.012-0.179 0.021-0.356 0.027-0.535 0.021-0.466 0.064-0.92 0.126-1.383 0.043-0.326 0.074-0.653 0.104-0.981 0.005-0.056 0.011-0.113 0.017-0.171 0.030-0.33 0.042-0.655 0.034-0.986 0.004-0.132 0.004-0.132 0.067-0.319 0.018-0.154 0.033-0.308 0.046-0.463 0.004-0.047 0.008-0.094 0.013-0.142 0.014-0.156 0.027-0.311 0.041-0.467 0.010-0.109 0.019-0.217 0.029-0.326 0.025-0.287 0.050-0.573 0.075-0.86 0.025-0.289 0.051-0.578 0.076-0.868 0.106-1.204 0.106-1.204 0.207-2.409 0.021-0.24 0.047-0.48 0.076-0.719 0.005-0.046 0.010-0.091 0.016-0.139 0.022-0.191 0.048-0.362 0.109-0.545 0.52-0.403 1.408-0.178 2.023-0.116 0.121 0.012 0.241 0.023 0.362 0.035 0.128 0.012 0.256 0.025 0.384 0.038 0.27 0.027 0.541 0.052 0.811 0.078 0.046 0.004 0.092 0.009 0.14 0.013 0.094 0.009 0.189 0.018 0.283 0.027 0.628 0.059 1.255 0.119 1.883 0.181 2.945 0.3 2.945 0.3 5.894 0.153 0.479-0.059 0.96-0.092 1.441-0.13 0.275-0.022 0.551-0.046 0.826-0.070 0.334-0.029 0.667-0.058 1.001-0.086 0.278-0.023 0.555-0.047 0.833-0.071 0.104-0.009 0.208-0.018 0.313-0.026 0.143-0.012 0.287-0.024 0.43-0.037 0.081-0.007 0.162-0.014 0.246-0.021 0.206-0.018 0.206-0.018 0.383-0.155-0.006-0.047-0.012-0.094-0.018-0.143-0.108-1.032 0.022-1.876 0.65-2.723 0.715-0.841 1.599-1.27 2.688-1.275zM21.438 2.438c-0.072 0.039-0.072 0.039-0.145 0.078-0.422 0.27-0.652 0.731-0.77 1.21-0.089 0.598 0.002 1.14 0.364 1.634 0.374 0.446 0.815 0.778 1.398 0.859 0.452 0.041 0.452 0.041 0.852-0.137 0.103-0.148 0.172-0.289 0.238-0.456 0.020-0.044 0.040-0.088 0.061-0.134 0.159-0.399 0.172-0.816 0.189-1.241 0.004-0.064 0.008-0.128 0.012-0.195 0.028-0.71-0.247-1.345-0.637-1.93-0.571-0.102-1.063 0.044-1.563 0.313z"></path>
<path fill="#478ffe" style="fill: var(--color2, #478ffe)" d="M22.57 0.734c0.062-0.001 0.124-0.003 0.188-0.004 0.959-0.005 1.673 0.378 2.366 1.020 0.563 0.595 0.897 1.363 0.883 2.184-0.001 0.043-0.001 0.085-0.002 0.13-0.001 0.104-0.004 0.208-0.006 0.312 0.036-0.003 0.072-0.006 0.109-0.010 0.378-0.033 0.756-0.065 1.135-0.097 0.141-0.012 0.282-0.024 0.422-0.036 0.203-0.018 0.407-0.035 0.61-0.052 0.062-0.005 0.124-0.011 0.188-0.017 1.111-0.093 1.111-0.093 1.414 0.056 0.258 0.333 0.27 0.794 0.303 1.202 0.005 0.052 0.009 0.104 0.014 0.158 0.015 0.172 0.029 0.344 0.044 0.516 0.011 0.122 0.021 0.244 0.032 0.366 0.028 0.322 0.055 0.643 0.083 0.965 0.027 0.319 0.055 0.639 0.082 0.958 0.032 0.375 0.065 0.75 0.097 1.124 0.083 0.962 0.169 1.924 0.258 2.885 0.063 0.69 0.124 1.381 0.185 2.071 0.004 0.042 0.007 0.084 0.011 0.128 0.196 2.213 0.383 4.427 0.57 6.641 0.006 0.070 0.012 0.14 0.018 0.212 0.033 0.391 0.066 0.781 0.099 1.172 0.010 0.118 0.020 0.235 0.030 0.353 0.027 0.31 0.052 0.62 0.076 0.93 0.005 0.066 0.011 0.131 0.016 0.199 0.010 0.126 0.020 0.252 0.029 0.378 0.005 0.057 0.009 0.113 0.014 0.172 0.004 0.050 0.008 0.099 0.012 0.151 0.026 0.149 0.079 0.255 0.149 0.387 0.015 0.149 0.015 0.149 0.014 0.315 0 0.063-0 0.125-0 0.19-0.001 0.067-0.001 0.134-0.002 0.203-0 0.104-0 0.104-0.001 0.209-0.001 0.22-0.002 0.441-0.004 0.661-0.001 0.149-0.001 0.299-0.002 0.448-0.001 0.366-0.003 0.732-0.006 1.099-0.243 0.132-0.437 0.212-0.712 0.236-0.102 0.009-0.102 0.009-0.207 0.019-0.076 0.006-0.151 0.012-0.229 0.019-0.126 0.011-0.253 0.023-0.379 0.034-0.147 0.013-0.294 0.026-0.441 0.038-0.401 0.034-0.801 0.070-1.202 0.107-0.674 0.061-1.349 0.121-2.023 0.18-0.34 0.030-0.679 0.061-1.019 0.092-0.063 0.006-0.126 0.012-0.19 0.018-0.117 0.011-0.234 0.022-0.35 0.033-0.271 0.025-0.537 0.043-0.81 0.037-0.003 0.047-0.006 0.095-0.009 0.143-0.013 0.215-0.028 0.431-0.042 0.646-0.007 0.112-0.007 0.112-0.013 0.225-0.005 0.072-0.010 0.144-0.015 0.218-0.004 0.066-0.009 0.132-0.013 0.2-0.045 0.264-0.114 0.49-0.338 0.652-0.518 0.156-1.171 0.023-1.703-0.015-0.074-0.005-0.149-0.010-0.226-0.015-0.45-0.031-0.897-0.076-1.345-0.13-0.516-0.063-1.033-0.113-1.551-0.163-0.166-0.016-0.333-0.032-0.499-0.049-0.558-0.054-1.113-0.097-1.673-0.119-0.46-0.019-0.907-0.060-1.364-0.122-0.53-0.070-1.065-0.107-1.597-0.15-0.201-0.017-0.403-0.034-0.604-0.051-1.117-0.093-2.183-0.099-3.297 0.011-0.532 0.052-1.064 0.101-1.599 0.115-0.073 0.002-0.146 0.004-0.221 0.006-0.256-0.035-0.386-0.106-0.579-0.278-0.055-0.203-0.055-0.203-0.063-0.375-0.063-0.003-0.126-0.007-0.192-0.010-0.629-0.035-1.257-0.080-1.885-0.134-0.148-0.013-0.296-0.025-0.444-0.037-0.096-0.008-0.192-0.016-0.288-0.024-0.043-0.004-0.087-0.007-0.131-0.011-0.201-0.017-0.401-0.038-0.602-0.064-0.367-0.047-0.735-0.073-1.104-0.103-0.162-0.013-0.325-0.027-0.487-0.040-0.255-0.021-0.51-0.042-0.765-0.063-0.247-0.020-0.494-0.040-0.74-0.061-0.076-0.006-0.153-0.012-0.232-0.018-0.071-0.006-0.142-0.012-0.215-0.018-0.062-0.005-0.125-0.010-0.189-0.015-0.162-0.026-0.273-0.070-0.414-0.151-0.002-0.39-0.003-0.781-0.003-1.172-0-0.133-0.001-0.266-0.001-0.399-0.001-0.191-0.001-0.381-0.001-0.572-0-0.060-0.001-0.12-0.001-0.181 0-0.055 0-0.11 0-0.167-0-0.049-0-0.097-0-0.148 0.008-0.112 0.008-0.112 0.070-0.174 0.014-0.101 0.025-0.203 0.033-0.305 0.005-0.063 0.011-0.125 0.016-0.19 0.005-0.066 0.011-0.132 0.016-0.2 0.006-0.065 0.011-0.129 0.017-0.196 0.023-0.267 0.045-0.532 0.041-0.8 0-0.184 0-0.184 0.063-0.372 0.013-0.097 0.023-0.194 0.031-0.291 0.005-0.060 0.011-0.12 0.016-0.181 0.006-0.066 0.011-0.131 0.017-0.199 0.006-0.069 0.012-0.138 0.019-0.209 0.020-0.229 0.040-0.459 0.060-0.688 0.014-0.159 0.028-0.319 0.042-0.478 0.029-0.335 0.058-0.669 0.087-1.004 0.033-0.386 0.067-0.771 0.101-1.157 0.033-0.372 0.065-0.744 0.097-1.116 0.014-0.158 0.027-0.315 0.041-0.473 0.019-0.221 0.038-0.442 0.057-0.664 0.006-0.065 0.011-0.129 0.017-0.196 0.029-0.348 0.043-0.69 0.035-1.040 0.004-0.117 0.004-0.117 0.067-0.18 0.012-0.179 0.021-0.356 0.027-0.535 0.021-0.466 0.064-0.92 0.126-1.383 0.043-0.326 0.074-0.653 0.104-0.981 0.005-0.056 0.011-0.113 0.017-0.171 0.030-0.33 0.042-0.655 0.034-0.986 0.004-0.132 0.004-0.132 0.067-0.319 0.018-0.154 0.033-0.308 0.046-0.463 0.004-0.047 0.008-0.094 0.013-0.142 0.014-0.156 0.027-0.311 0.041-0.467 0.010-0.109 0.019-0.217 0.029-0.326 0.025-0.287 0.050-0.573 0.075-0.86 0.025-0.289 0.051-0.578 0.076-0.868 0.106-1.204 0.106-1.204 0.207-2.409 0.021-0.24 0.047-0.48 0.076-0.719 0.005-0.046 0.010-0.091 0.016-0.139 0.022-0.191 0.048-0.362 0.109-0.545 0.52-0.403 1.408-0.178 2.023-0.116 0.121 0.012 0.241 0.023 0.362 0.035 0.128 0.012 0.256 0.025 0.384 0.038 0.27 0.027 0.541 0.052 0.811 0.078 0.046 0.004 0.092 0.009 0.14 0.013 0.094 0.009 0.189 0.018 0.283 0.027 0.628 0.059 1.255 0.119 1.883 0.181 2.945 0.3 2.945 0.3 5.894 0.153 0.479-0.059 0.96-0.092 1.441-0.13 0.275-0.022 0.551-0.046 0.826-0.070 0.334-0.029 0.667-0.058 1.001-0.086 0.278-0.023 0.555-0.047 0.833-0.071 0.104-0.009 0.208-0.018 0.313-0.026 0.143-0.012 0.287-0.024 0.43-0.037 0.081-0.007 0.162-0.014 0.246-0.021 0.206-0.018 0.206-0.018 0.383-0.155-0.006-0.047-0.012-0.094-0.018-0.143-0.108-1.032 0.022-1.876 0.65-2.723 0.715-0.841 1.599-1.27 2.688-1.275zM21.438 2.438c-0.072 0.039-0.072 0.039-0.145 0.078-0.422 0.27-0.652 0.731-0.77 1.21-0.089 0.598 0.002 1.14 0.364 1.634 0.374 0.446 0.815 0.778 1.398 0.859 0.452 0.041 0.452 0.041 0.852-0.137 0.103-0.148 0.172-0.289 0.238-0.456 0.020-0.044 0.040-0.088 0.061-0.134 0.159-0.399 0.172-0.816 0.189-1.241 0.004-0.064 0.008-0.128 0.012-0.195 0.028-0.71-0.247-1.345-0.637-1.93-0.571-0.102-1.063 0.044-1.563 0.313zM26.872 5.502c-0.788-0.018-0.788-0.018-1.491 0.259-0.108 0.159-0.182 0.312-0.256 0.489-0.16 0.176-0.16 0.176-0.313 0.313-0.053 0.050-0.106 0.101-0.16 0.152-0.59 0.481-1.295 0.685-2.043 0.684-0.078-0-0.078-0-0.157-0-0.537-0.011-0.991-0.14-1.452-0.418-0.169-0.118-0.169-0.118-0.308-0.096-0.169 0.069-0.263 0.164-0.391 0.294-0.051 0.051-0.102 0.102-0.154 0.155-0.054 0.056-0.109 0.111-0.165 0.168s-0.112 0.113-0.17 0.172c-0.149 0.151-0.298 0.301-0.447 0.452-0.21 0.213-0.42 0.425-0.631 0.638-0.112 0.113-0.224 0.226-0.336 0.34-0.076 0.077-0.076 0.077-0.153 0.155-0.044 0.045-0.089 0.090-0.135 0.137-0.192 0.182-0.354 0.189-0.616 0.184-0.119-0.017-0.119-0.017-0.244-0.115-0.092-0.223-0.103-0.349-0.063-0.59 0.082-0.114 0.082-0.114 0.189-0.233 0.040-0.044 0.080-0.087 0.121-0.133 0.208-0.22 0.42-0.434 0.635-0.646 0.070-0.069 0.070-0.069 0.141-0.14 0.147-0.146 0.294-0.292 0.441-0.438 0.195-0.194 0.391-0.388 0.586-0.582 0.045-0.045 0.090-0.089 0.137-0.135 0.041-0.041 0.082-0.082 0.125-0.124 0.036-0.036 0.073-0.072 0.11-0.109 0.085-0.073 0.085-0.073 0.078-0.147-0.452-0.017-0.876 0.023-1.323 0.093-0.312 0.041-0.622 0.059-0.936 0.073-0.182 0.008-0.358 0.020-0.537 0.051-0.235 0.038-0.469 0.057-0.706 0.073-0.049 0.004-0.097 0.007-0.148 0.011-0.105 0.008-0.21 0.015-0.315 0.023-0.281 0.020-0.561 0.041-0.842 0.062-0.057 0.004-0.115 0.008-0.174 0.013-0.541 0.040-1.082 0.081-1.622 0.125-0.096 0.008-0.192 0.015-0.288 0.023-0.457 0.036-0.912 0.076-1.367 0.137-0.867 0.112-1.74 0.168-2.611 0.238-0.215 0.017-0.43 0.034-0.645 0.052-0.16 0.013-0.32 0.026-0.48 0.038-0.072 0.006-0.144 0.012-0.218 0.018-0.063 0.005-0.126 0.010-0.191 0.015-0.166 0.014-0.166 0.014-0.346 0.081-0.011 0.564 0.024 1.117 0.075 1.678 0.008 0.089 0.016 0.178 0.024 0.267 0.021 0.234 0.042 0.468 0.064 0.702 0.021 0.23 0.042 0.461 0.062 0.691 0.027 0.305 0.055 0.609 0.083 0.914 0.145 1.601 0.284 3.202 0.423 4.803 0.021 0.238 0.042 0.476 0.062 0.714 0.031 0.352 0.061 0.704 0.092 1.056 0.059 0.678 0.118 1.355 0.177 2.033 0.301 3.453 0.301 3.453 0.427 4.9 0.036 0.419 0.073 0.837 0.109 1.256 0.027 0.309 0.054 0.618 0.081 0.927 0.016 0.184 0.032 0.369 0.048 0.553 0.010 0.12 0.021 0.24 0.031 0.36 0.032 0.362 0.067 0.721 0.116 1.081 0.087 0.002 0.174 0.003 0.262 0.004 0.073 0.001 0.073 0.001 0.147 0.002 0.152-0.002 0.152-0.002 0.29-0.035 0.212-0.040 0.424-0.057 0.639-0.072 0.095-0.007 0.19-0.014 0.286-0.021 0.050-0.004 0.101-0.007 0.153-0.011 0.276-0.020 0.552-0.041 0.828-0.062 0.087-0.007 0.087-0.007 0.176-0.013 0.633-0.049 1.266-0.102 1.899-0.157 0.059-0.005 0.117-0.010 0.177-0.015 0.369-0.032 0.737-0.064 1.106-0.096 0.33-0.029 0.66-0.057 0.99-0.086 0.553-0.048 1.106-0.096 1.66-0.144 0.773-0.067 1.546-0.134 2.318-0.202 1.437-0.125 2.874-0.25 4.311-0.375 0.212-0.019 0.425-0.037 0.637-0.056 0.249-0.022 0.497-0.043 0.746-0.065 0.090-0.008 0.18-0.016 0.27-0.023 0.539-0.047 1.076-0.102 1.613-0.169 0.497-0.057 0.996-0.091 1.495-0.129 0.11-0.008 0.219-0.017 0.329-0.025 0.264-0.020 0.528-0.041 0.792-0.061 0.015-0.544-0.031-1.073-0.090-1.613-0.008-0.080-0.017-0.16-0.026-0.243-0.042-0.409-0.042-0.409-0.103-0.815-0.034-0.22-0.052-0.437-0.066-0.66-0.003-0.044-0.006-0.088-0.009-0.134-0.006-0.095-0.012-0.19-0.018-0.285-0.010-0.151-0.019-0.302-0.029-0.454-0.028-0.43-0.056-0.859-0.083-1.289-0.017-0.263-0.034-0.527-0.051-0.79-0.006-0.1-0.013-0.199-0.019-0.299-0.031-0.494-0.069-0.978-0.167-1.464-0.036-0.184-0.051-0.366-0.062-0.552-0.007-0.108-0.007-0.108-0.014-0.218-0.004-0.075-0.009-0.15-0.013-0.227-0.010-0.161-0.021-0.321-0.031-0.482-0.005-0.080-0.010-0.159-0.016-0.242-0.028-0.407-0.063-0.814-0.098-1.22-0.037-0.427-0.064-0.853-0.084-1.28-0.017-0.181-0.043-0.341-0.080-0.518-0.123-0.651-0.13-1.323-0.166-1.984-0.037-0.657-0.082-1.308-0.179-1.959-0.125-0.847-0.172-1.7-0.225-2.554-0.015-0.24-0.030-0.481-0.046-0.721-0.010-0.148-0.019-0.296-0.028-0.444-0.032-0.502-0.095-0.995-0.172-1.492-0.418-0.008-0.835-0.003-1.253 0.002z"></path>
<path fill="#a2c0f6" style="fill: var(--color3, #a2c0f6)" d="M3.063 6.125c0.484-0.013 0.961 0.030 1.442 0.077 0.136 0.013 0.273 0.026 0.409 0.039 0.726 0.069 0.726 0.069 1.023 0.135-0.021 0.062-0.041 0.124-0.063 0.188-0.058 0.914 0.062 1.835 0.144 2.744 0.015 0.173 0.031 0.346 0.046 0.519 0.032 0.368 0.065 0.736 0.098 1.104 0.048 0.532 0.095 1.064 0.142 1.595 0.069 0.784 0.139 1.568 0.209 2.353 0.132 1.481 0.262 2.963 0.391 4.445 0.022 0.257 0.045 0.515 0.067 0.772 0.072 0.823 0.144 1.646 0.215 2.468 0.006 0.067 0.012 0.134 0.018 0.204 0.078 0.898 0.156 1.796 0.234 2.693 0.022 0.259 0.045 0.518 0.067 0.777 0.026 0.299 0.052 0.598 0.078 0.897 0.009 0.109 0.019 0.218 0.028 0.328 0.013 0.149 0.026 0.298 0.038 0.447 0.004 0.043 0.008 0.086 0.011 0.131 0.018 0.217 0.029 0.431 0.025 0.649-0.477-0.033-0.953-0.068-1.429-0.107-0.048-0.004-0.096-0.008-0.146-0.012-0.198-0.016-0.395-0.033-0.593-0.049-0.527-0.044-1.053-0.084-1.581-0.113-0.404-0.022-0.801-0.064-1.201-0.125-0.517-0.075-1.029-0.13-1.551-0.156-0.002-0.126-0.003-0.253-0.004-0.379-0.001-0.070-0.001-0.141-0.002-0.213 0.006-0.22 0.006-0.22 0.035-0.417 0.038-0.272 0.059-0.543 0.079-0.817 0.008-0.111 0.016-0.222 0.024-0.332 0.012-0.173 0.025-0.346 0.037-0.519 0.012-0.168 0.024-0.336 0.036-0.504 0.004-0.051 0.007-0.103 0.011-0.156 0.015-0.204 0.033-0.403 0.066-0.606 0.036-0.22 0.048-0.438 0.057-0.66 0.004-0.094 0.009-0.188 0.014-0.282 0.003-0.073 0.003-0.073 0.007-0.148 0.043-0.882 0.117-1.748 0.243-2.623 0.112-0.809 0.156-1.623 0.198-2.438 0.002-0.049 0.005-0.098 0.008-0.148 0.002-0.049 0.005-0.098 0.008-0.148 0.039-0.762 0.116-1.51 0.225-2.265 0.112-0.809 0.156-1.623 0.198-2.438 0.002-0.049 0.005-0.098 0.008-0.149 0.002-0.049 0.005-0.098 0.008-0.148 0.039-0.76 0.115-1.507 0.224-2.26 0.099-0.725 0.149-1.454 0.18-2.185 0.036-0.724 0.131-1.444 0.217-2.164z"></path>
<path fill="#7fabf9" style="fill: var(--color4, #7fabf9)" d="M28.667 5.374c0.051 0 0.101 0 0.153 0 0.058 0 0.058 0 0.117 0 0.129 1.239 0.256 2.476 0.334 3.719 0.030 0.464 0.075 0.922 0.134 1.384 0.051 0.415 0.078 0.832 0.109 1.249 0.031 0.402 0.068 0.802 0.113 1.203 0.044 0.391 0.072 0.779 0.090 1.172 0.018 0.41 0.054 0.814 0.106 1.222 0.058 0.467 0.092 0.935 0.128 1.404 0.031 0.402 0.068 0.802 0.113 1.203 0.044 0.391 0.072 0.779 0.090 1.172 0.018 0.41 0.054 0.814 0.106 1.221 0.058 0.467 0.092 0.935 0.128 1.404 0.031 0.402 0.068 0.802 0.113 1.203 0.049 0.441 0.077 0.88 0.096 1.322 0.015 0.316 0.045 0.626 0.087 0.939 0.096 0.724 0.104 1.455 0.125 2.184-0.268 0.021-0.536 0.041-0.813 0.063-0.011-0.111-0.011-0.111-0.022-0.224-0.027-0.275-0.054-0.549-0.081-0.824-0.012-0.119-0.023-0.237-0.035-0.356-0.017-0.171-0.034-0.342-0.051-0.513-0.005-0.053-0.010-0.105-0.016-0.16-0.005-0.050-0.010-0.1-0.015-0.152-0.004-0.044-0.009-0.087-0.013-0.132-0.013-0.106-0.030-0.211-0.048-0.316-0.035-0.219-0.051-0.434-0.065-0.655-0.003-0.044-0.006-0.088-0.009-0.134-0.006-0.095-0.012-0.19-0.018-0.285-0.010-0.151-0.019-0.302-0.029-0.454-0.028-0.43-0.056-0.859-0.083-1.289-0.017-0.263-0.034-0.527-0.051-0.79-0.006-0.1-0.013-0.199-0.019-0.299-0.031-0.494-0.069-0.978-0.167-1.464-0.036-0.184-0.051-0.366-0.062-0.552-0.005-0.072-0.009-0.144-0.014-0.218s-0.009-0.15-0.013-0.227c-0.010-0.161-0.021-0.321-0.031-0.482-0.005-0.080-0.010-0.159-0.016-0.242-0.028-0.407-0.063-0.814-0.098-1.22-0.037-0.427-0.064-0.853-0.084-1.28-0.017-0.181-0.043-0.341-0.080-0.518-0.123-0.651-0.13-1.323-0.166-1.984-0.037-0.657-0.082-1.306-0.179-1.957-0.127-0.858-0.174-1.722-0.229-2.587-0.016-0.245-0.032-0.491-0.048-0.736-0.010-0.151-0.020-0.302-0.029-0.454-0.004-0.068-0.009-0.136-0.013-0.206-0.004-0.059-0.007-0.119-0.011-0.18-0.017-0.185-0.047-0.365-0.078-0.548-0.007-0.167-0.003-0.332 0-0.5-0.103 0-0.206 0-0.313 0 0-0.021 0-0.041 0-0.063 0.288-0.037 0.565-0.064 0.855-0.063z"></path>
<path fill="#468efe" style="fill: var(--color5, #468efe)" d="M26.694 22.236c0.278-0.015 0.39-0.013 0.626 0.147 0.139 0.213 0.164 0.305 0.117 0.555-0.14 0.219-0.262 0.338-0.5 0.438-0.135 0.024-0.135 0.024-0.282 0.035-0.056 0.005-0.111 0.009-0.169 0.014-0.060 0.004-0.12 0.009-0.182 0.013-0.063 0.005-0.126 0.010-0.191 0.015-0.202 0.016-0.404 0.032-0.607 0.047-0.197 0.016-0.395 0.031-0.592 0.047-0.131 0.010-0.262 0.021-0.394 0.031-0.817 0.065-1.634 0.138-2.449 0.221-0.783 0.077-0.783 0.077-1.089-0.112-0.118-0.203-0.148-0.329-0.157-0.559 0.082-0.223 0.216-0.338 0.423-0.441 0.283-0.063 0.567-0.082 0.855-0.102 0.085-0.007 0.171-0.014 0.256-0.021 0.181-0.015 0.362-0.029 0.543-0.043 0.286-0.022 0.572-0.047 0.857-0.073 0.977-0.088 1.955-0.141 2.932-0.214z"></path>
<path fill="#468efe" style="fill: var(--color5, #468efe)" d="M23.066 19.227c0.047-0.002 0.095-0.003 0.144-0.005 0.213-0.001 0.331 0.013 0.506 0.139 0.116 0.167 0.129 0.307 0.136 0.508-0.062 0.206-0.174 0.33-0.352 0.444-0.232 0.061-0.465 0.077-0.705 0.094-0.070 0.006-0.139 0.012-0.211 0.019-0.223 0.020-0.447 0.037-0.67 0.055-0.146 0.012-0.292 0.025-0.438 0.038-0.289 0.025-0.578 0.049-0.867 0.072-0.275 0.022-0.55 0.046-0.825 0.070-0.064 0.006-0.128 0.012-0.194 0.017-0.118 0.011-0.237 0.021-0.355 0.032-0.395 0.035-0.788 0.053-1.184 0.063-0.078 0.003-0.078 0.003-0.157 0.005-0.227 0.001-0.365-0.007-0.552-0.142-0.136-0.202-0.126-0.336-0.093-0.574 0.090-0.176 0.090-0.176 0.25-0.313 0.543-0.159 1.11-0.179 1.672-0.223 0.149-0.012 0.298-0.024 0.447-0.036 0.092-0.007 0.184-0.015 0.276-0.022 0.227-0.018 0.444-0.049 0.667-0.095 0.83-0.084 1.67-0.134 2.504-0.148z"></path>
<path fill="#458efe" style="fill: var(--color6, #458efe)" d="M16.469 13.305c0.156 0.133 0.156 0.133 0.219 0.258 0.003 0.146 0.003 0.292 0 0.438-0.041 0-0.082 0-0.125 0-0.021 0.062-0.041 0.124-0.063 0.188-0.211 0.141-0.317 0.151-0.567 0.174-0.078 0.008-0.157 0.015-0.237 0.023-0.086 0.008-0.172 0.015-0.258 0.023-0.089 0.008-0.178 0.016-0.267 0.025-0.188 0.017-0.375 0.034-0.563 0.051-0.19 0.017-0.38 0.034-0.569 0.052-1.781 0.168-1.781 0.168-2.625 0.188-0.052 0.002-0.105 0.005-0.159 0.007-0.143 0.001-0.143 0.001-0.38-0.042-0.192-0.212-0.249-0.314-0.254-0.602 0.081-0.257 0.155-0.316 0.379-0.461 0.202-0.045 0.202-0.045 0.431-0.063 0.041-0.004 0.082-0.007 0.124-0.011 0.133-0.011 0.265-0.021 0.398-0.031 0.092-0.008 0.184-0.015 0.276-0.023 0.52-0.043 1.040-0.076 1.562-0.102 0.443-0.027 0.884-0.088 1.324-0.144 1.019-0.126 1.019-0.126 1.354 0.054z"></path>
<path fill="#478ffe" style="fill: var(--color2, #478ffe)" d="M26.699 15.742c0.134 0.157 0.172 0.228 0.199 0.434-0.031 0.264-0.136 0.345-0.336 0.512-0.654 0.327-1.686 0.225-2.411 0.269-0.078 0.005-0.156 0.010-0.236 0.015-0.070 0.004-0.139 0.008-0.211 0.012-0.216 0.017-0.428 0.047-0.642 0.079-0.716 0.058-0.716 0.058-1.020-0.125-0.147-0.261-0.148-0.39-0.105-0.688 0.082-0.148 0.082-0.148 0.25-0.25 0.445-0.108 0.902-0.153 1.357-0.192 0.061-0.005 0.122-0.011 0.185-0.016 0.128-0.011 0.256-0.022 0.384-0.033 0.194-0.017 0.388-0.034 0.582-0.051 1.693-0.148 1.693-0.148 2.004 0.034z"></path>
<path fill="#458efe" style="fill: var(--color6, #458efe)" d="M19.625 16.438c0.099 0.197 0.114 0.413 0.063 0.625-0.128 0.173-0.235 0.291-0.448 0.349-0.168 0.023-0.334 0.036-0.502 0.046-0.093 0.007-0.093 0.007-0.188 0.015-0.198 0.016-0.395 0.029-0.593 0.043-0.132 0.010-0.264 0.020-0.395 0.030-0.244 0.019-0.488 0.037-0.732 0.054-0.274 0.020-0.547 0.046-0.82 0.074-0.188 0.019-0.376 0.029-0.565 0.033-0.067 0.002-0.134 0.005-0.203 0.007-0.18-0.027-0.18-0.027-0.327-0.136-0.113-0.155-0.141-0.229-0.143-0.418-0.002-0.046-0.004-0.093-0.006-0.14 0.072-0.23 0.215-0.347 0.42-0.457 0.268-0.062 0.538-0.080 0.812-0.099 0.079-0.006 0.158-0.013 0.239-0.020 0.209-0.017 0.418-0.033 0.626-0.048 0.17-0.013 0.339-0.026 0.508-0.040 1.947-0.159 1.947-0.159 2.252 0.081z"></path>
<path fill="#448dfe" style="fill: var(--color7, #448dfe)" d="M22.574 12.781c0.128 0.176 0.15 0.309 0.155 0.525-0.067 0.212-0.164 0.335-0.354 0.444-0.268 0.064-0.538 0.084-0.813 0.105-0.078 0.007-0.157 0.014-0.237 0.021-0.159 0.014-0.318 0.028-0.477 0.041-0.196 0.017-0.391 0.037-0.587 0.058-0.546 0.060-1.091 0.1-1.641 0.109-0.052 0.002-0.105 0.003-0.159 0.005-0.237 0.001-0.36-0.001-0.558-0.139-0.143-0.216-0.14-0.389-0.092-0.639 0.082-0.148 0.082-0.148 0.25-0.25 0.501-0.128 1.017-0.156 1.531-0.188 0.524-0.034 1.045-0.073 1.566-0.133 1.079-0.118 1.079-0.118 1.414 0.039z"></path>
<path fill="#85aff9" style="fill: var(--color8, #85aff9)" d="M23.5 2.063c0.651 0.367 1.076 0.854 1.313 1.563 0.083 0.8-0.051 1.368-0.546 2.018-0.237 0.257-0.508 0.412-0.829 0.545-0.047 0.022-0.094 0.044-0.142 0.067-0.563 0.19-1.23 0.099-1.756-0.153-0.375-0.231-0.643-0.496-0.79-0.914 0.064 0.066 0.064 0.066 0.129 0.133 0.061 0.060 0.122 0.12 0.184 0.18 0.032 0.032 0.065 0.063 0.098 0.095 0.49 0.449 0.97 0.588 1.63 0.569 0.206-0.023 0.206-0.023 0.332-0.132 0.087-0.133 0.139-0.257 0.189-0.407 0.019-0.043 0.037-0.086 0.057-0.13 0.161-0.402 0.176-0.817 0.193-1.245 0.004-0.064 0.008-0.128 0.012-0.195 0.016-0.405-0.044-0.715-0.201-1.088-0.061-0.155-0.061-0.155-0.092-0.327-0.015-0.070-0.015-0.070-0.031-0.14-0.041-0.021-0.082-0.041-0.125-0.063-0.045-0.103-0.087-0.207-0.125-0.313-0.582 0.010-1.044 0.109-1.563 0.375-0.043 0.021-0.086 0.042-0.131 0.064-0.372 0.218-0.528 0.611-0.682 0.999-0.115 0.457-0.067 0.914 0 1.375-0.125-0.063-0.125-0.063-0.163-0.162-0.11-0.664-0.076-1.32 0.288-1.9 0.667-0.83 1.718-1.229 2.75-0.813z"></path>
<path fill="#468efe" style="fill: var(--color5, #468efe)" d="M14.93 20.133c0.133 0.18 0.133 0.18 0.168 0.367-0.040 0.211-0.088 0.332-0.223 0.5-0.253 0.128-0.494 0.153-0.775 0.178-0.044 0.004-0.089 0.008-0.135 0.012-0.094 0.008-0.188 0.016-0.283 0.024-0.141 0.012-0.282 0.025-0.423 0.037-0.447 0.040-0.895 0.071-1.344 0.082-0.074 0.002-0.148 0.004-0.225 0.006-0.231-0.033-0.301-0.094-0.441-0.277-0.071-0.221-0.082-0.328 0.008-0.543 0.185-0.229 0.356-0.319 0.646-0.371 0.082-0.007 0.164-0.014 0.248-0.021 0.045-0.004 0.089-0.008 0.135-0.012 0.094-0.008 0.189-0.016 0.284-0.023 0.142-0.011 0.283-0.023 0.425-0.036 1.639-0.14 1.639-0.14 1.934 0.075z"></path>
<path fill="#458efe" style="fill: var(--color6, #458efe)" d="M18.52 23.129c0.134 0.233 0.153 0.356 0.105 0.621-0.216 0.304-0.461 0.371-0.813 0.438-0.166 0.018-0.326 0.032-0.492 0.039-0.045 0.002-0.090 0.004-0.136 0.007-0.145 0.006-0.289 0.012-0.434 0.017-0.076 0.003-0.076 0.003-0.154 0.006-0.153 0.006-0.306 0.010-0.459 0.013-0.047 0.002-0.095 0.004-0.144 0.006-0.218 0.002-0.344-0.008-0.523-0.136-0.128-0.188-0.132-0.3-0.118-0.521 0.023-0.119 0.023-0.119 0.105-0.267 0.27-0.163 0.545-0.188 0.855-0.227 0.045-0.006 0.089-0.011 0.135-0.017 1.7-0.211 1.7-0.211 2.072 0.021z"></path>
<path fill="#d7e6fe" style="fill: var(--color9, #d7e6fe)" d="M20.625 1.313c0.041 0.021 0.082 0.041 0.125 0.063-0.098 0.108-0.195 0.216-0.293 0.324-0.054 0.060-0.109 0.12-0.165 0.182-0.108 0.117-0.219 0.231-0.334 0.341-0.501 0.524-0.628 1.266-0.646 1.965 0.012 0.293 0.036 0.583 0.063 0.875-0.797 0.117-1.596 0.191-2.398 0.262-0.069 0.006-0.138 0.012-0.208 0.019-0.364 0.033-0.727 0.065-1.091 0.097-0.372 0.033-0.744 0.067-1.116 0.101-0.289 0.026-0.579 0.052-0.868 0.077-0.137 0.012-0.274 0.025-0.411 0.037-0.814 0.075-1.593 0.104-2.408 0.031-0.132-0.011-0.264-0.022-0.396-0.033-0.429-0.036-0.858-0.074-1.288-0.112-0.216-0.019-0.431-0.038-0.647-0.057-0.639-0.056-1.277-0.113-1.916-0.17-0.499-0.044-0.997-0.089-1.496-0.133-0.214-0.019-0.428-0.038-0.642-0.057-0.238-0.021-0.476-0.042-0.714-0.063-0.070-0.006-0.139-0.013-0.211-0.019-0.188-0.016-0.376-0.030-0.565-0.043-0.058-0.005-0.116-0.010-0.176-0.015-0.055-0.003-0.109-0.006-0.166-0.009-0.047-0.003-0.095-0.006-0.144-0.009-0.225 0.053-0.313 0.165-0.452 0.345-0.041 0.172-0.063 0.314-0.074 0.488-0.004 0.049-0.008 0.098-0.013 0.148-0.009 0.107-0.018 0.214-0.026 0.32-0.013 0.17-0.028 0.34-0.044 0.511-0.036 0.387-0.070 0.775-0.103 1.162-0.013 0.148-0.026 0.296-0.039 0.444-0.035 0.398-0.070 0.796-0.104 1.194-0.033 0.375-0.065 0.75-0.098 1.125-0.065 0.742-0.13 1.484-0.194 2.226-0.063 0.72-0.126 1.44-0.188 2.16-0.006 0.067-0.006 0.067-0.012 0.135-0.020 0.223-0.039 0.447-0.059 0.67-0.161 1.847-0.323 3.695-0.484 5.542-0.021 0-0.041 0-0.063 0-0.009-0.554 0.016-1.097 0.068-1.649 0.007-0.076 0.014-0.153 0.021-0.232 0.022-0.242 0.044-0.483 0.067-0.725s0.045-0.484 0.067-0.727c0.014-0.15 0.028-0.3 0.042-0.45 0.034-0.37 0.054-0.732 0.044-1.104 0.004-0.114 0.004-0.114 0.066-0.177 0.012-0.179 0.021-0.356 0.027-0.535 0.021-0.466 0.064-0.92 0.126-1.383 0.043-0.326 0.074-0.653 0.104-0.981 0.005-0.056 0.011-0.113 0.017-0.171 0.030-0.33 0.042-0.655 0.034-0.986 0.004-0.132 0.004-0.132 0.067-0.319 0.018-0.154 0.033-0.308 0.046-0.463 0.004-0.047 0.008-0.094 0.013-0.142 0.014-0.156 0.027-0.311 0.041-0.467 0.010-0.109 0.019-0.217 0.029-0.326 0.025-0.287 0.050-0.573 0.075-0.86 0.025-0.289 0.051-0.578 0.076-0.868 0.106-1.204 0.106-1.204 0.207-2.409 0.021-0.24 0.047-0.48 0.076-0.719 0.005-0.046 0.010-0.091 0.016-0.139 0.022-0.191 0.048-0.362 0.109-0.545 0.52-0.403 1.408-0.178 2.023-0.116 0.121 0.012 0.241 0.023 0.362 0.035 0.128 0.012 0.256 0.025 0.384 0.038 0.27 0.027 0.541 0.052 0.811 0.078 0.069 0.007 0.069 0.007 0.14 0.013 0.094 0.009 0.189 0.018 0.283 0.027 0.628 0.059 1.255 0.119 1.883 0.181 2.945 0.3 2.945 0.3 5.894 0.153 0.479-0.059 0.96-0.092 1.441-0.13 0.275-0.022 0.551-0.046 0.826-0.070 0.334-0.029 0.667-0.058 1.001-0.086 0.278-0.023 0.555-0.047 0.833-0.071 0.104-0.009 0.208-0.018 0.313-0.026 0.143-0.012 0.287-0.024 0.43-0.037 0.081-0.007 0.162-0.014 0.246-0.021 0.206-0.018 0.206-0.018 0.383-0.155-0.009-0.071-0.009-0.071-0.018-0.143-0.107-1.027 0.016-1.896 0.661-2.729 0.226-0.258 0.461-0.48 0.732-0.69z"></path>
<path fill="#468efe" style="fill: var(--color5, #468efe)" d="M13.377 23.363c0.448-0.017 0.448-0.017 0.694 0.13 0.139 0.157 0.175 0.225 0.203 0.434-0.031 0.264-0.136 0.345-0.336 0.512-0.237 0.118-0.52 0.106-0.781 0.129-0.060 0.006-0.12 0.011-0.181 0.017-0.294 0.026-0.588 0.047-0.883 0.055-0.049 0.001-0.098 0.003-0.149 0.004-0.16-0.022-0.217-0.065-0.326-0.182-0.127-0.229-0.166-0.33-0.117-0.586 0.082-0.172 0.082-0.172 0.25-0.313 0.226-0.071 0.453-0.099 0.688-0.125 0.062-0.007 0.124-0.014 0.188-0.021 0.25-0.024 0.501-0.037 0.752-0.054z"></path>
<path fill="#468efe" style="fill: var(--color5, #468efe)" d="M26.41 12.441c0.152 0.184 0.152 0.184 0.191 0.402-0.044 0.248-0.112 0.355-0.289 0.531-0.136 0.068-0.231 0.080-0.382 0.096-0.052 0.005-0.104 0.011-0.157 0.017-0.278 0.027-0.557 0.053-0.836 0.075-0.044 0.004-0.088 0.007-0.133 0.011-0.595 0.042-0.595 0.042-0.886-0.14-0.134-0.233-0.153-0.356-0.105-0.621 0.189-0.234 0.331-0.351 0.633-0.394 0.167-0.016 0.333-0.032 0.5-0.048 0.057-0.006 0.114-0.011 0.173-0.017 1.033-0.098 1.033-0.098 1.292 0.088z"></path>
<path fill="#468efe" style="fill: var(--color5, #468efe)" d="M12.789 16.789c0.071-0.002 0.071-0.002 0.143-0.005 0.23-0.001 0.367 0.020 0.565 0.142 0.128 0.137 0.128 0.137 0.198 0.348-0.011 0.313-0.094 0.39-0.32 0.602-0.345 0.126-0.748 0.101-1.113 0.119-0.091 0.004-0.181 0.009-0.272 0.014-0.127 0.007-0.254 0.012-0.381 0.016-0.075 0.003-0.15 0.006-0.228 0.009-0.194-0.033-0.194-0.033-0.344-0.177-0.133-0.223-0.142-0.35-0.101-0.606 0.158-0.197 0.264-0.298 0.509-0.37 0.448-0.049 0.893-0.081 1.343-0.091z"></path>
<path fill="#9ebef6" style="fill: var(--color10, #9ebef6)" d="M23.188 29.188c0.008 0.548 0.008 0.548-0.063 0.813-1.074-0.028-2.137-0.117-3.206-0.227-0.346-0.035-0.693-0.067-1.040-0.098-0.058-0.005-0.116-0.010-0.176-0.016-0.13-0.012-0.26-0.023-0.39-0.035 0-0.021 0-0.041 0-0.063 2.578-0.249 2.578-0.249 3.492-0.328 0.055-0.005 0.11-0.010 0.167-0.015 0.406-0.034 0.809-0.037 1.216-0.032z"></path>
<path fill="#468efe" style="fill: var(--color5, #468efe)" d="M26.369 18.923c0.276-0.015 0.403-0.012 0.639 0.144 0.149 0.233 0.166 0.35 0.117 0.621-0.159 0.238-0.315 0.33-0.586 0.395-1.11 0.172-1.11 0.172-1.44-0.066-0.14-0.199-0.134-0.334-0.124-0.571 0.036-0.191 0.119-0.273 0.275-0.383 0.323-0.161 0.764-0.111 1.119-0.14z"></path>
<path fill="#c9ddfb" style="fill: var(--color11, #c9ddfb)" d="M22.434 1.984c0.075-0.002 0.151-0.003 0.228-0.005 0.232 0.022 0.343 0.065 0.526 0.208 0.087 0.119 0.087 0.119 0.148 0.246 0.021 0.042 0.042 0.084 0.064 0.127 0.044 0.15 0.025 0.231-0.025 0.377-0.018-0.071-0.036-0.142-0.055-0.215-0.023-0.073-0.046-0.147-0.070-0.223-0.041-0.021-0.082-0.041-0.125-0.063-0.045-0.103-0.087-0.207-0.125-0.313-0.582 0.010-1.044 0.109-1.563 0.375-0.043 0.021-0.086 0.042-0.131 0.064-0.372 0.218-0.528 0.611-0.682 0.999-0.115 0.457-0.067 0.914 0 1.375-0.125-0.063-0.125-0.063-0.163-0.162-0.11-0.664-0.076-1.32 0.288-1.9 0.464-0.577 0.94-0.881 1.684-0.891z"></path>
<path fill="#d6e6fe" style="fill: var(--color12, #d6e6fe)" d="M20.625 1.313c0.062 0.031 0.062 0.031 0.125 0.063-0.098 0.108-0.195 0.216-0.293 0.324-0.054 0.060-0.109 0.12-0.165 0.182-0.108 0.117-0.219 0.231-0.334 0.341-0.501 0.524-0.628 1.266-0.646 1.965 0.012 0.293 0.034 0.583 0.063 0.875-1.029 0.153-2.084 0.29-3.125 0.25 0-0.021 0-0.041 0-0.063 0.035-0.003 0.070-0.006 0.105-0.009 0.362-0.030 0.724-0.060 1.086-0.091 0.135-0.011 0.27-0.023 0.405-0.034 0.194-0.016 0.388-0.033 0.582-0.049 0.061-0.005 0.121-0.010 0.183-0.015 0.084-0.008 0.084-0.008 0.171-0.015 0.050-0.004 0.099-0.008 0.15-0.013 0.148-0.019 0.148-0.019 0.317-0.15-0.006-0.047-0.012-0.094-0.018-0.143-0.107-1.027 0.016-1.896 0.661-2.729 0.226-0.258 0.461-0.48 0.732-0.69z"></path>
<path fill="#d5e4fa" style="fill: var(--color13, #d5e4fa)" d="M20.75 5.188c0.043 0.044 0.085 0.088 0.129 0.133 0.061 0.060 0.122 0.12 0.184 0.18 0.032 0.032 0.065 0.063 0.098 0.095 0.503 0.46 0.96 0.557 1.629 0.563 0.239-0.038 0.312-0.096 0.46-0.283-0.067 0.182-0.111 0.299-0.25 0.438-0.591 0.077-1.113-0.005-1.625-0.313-0.298-0.235-0.498-0.452-0.625-0.813z"></path>
<path fill="#dce9fd" style="fill: var(--color14, #dce9fd)" d="M20.625 1.313c0.041 0.021 0.082 0.041 0.125 0.063-0.098 0.108-0.195 0.216-0.293 0.324-0.054 0.060-0.109 0.12-0.165 0.182-0.108 0.117-0.219 0.231-0.334 0.341-0.318 0.332-0.478 0.774-0.584 1.215-0.041 0-0.082 0-0.125 0 0.171-0.891 0.664-1.575 1.375-2.125z"></path>
<path fill="#ecf3fb" style="fill: var(--color15, #ecf3fb)" d="M22.496 1.98c0.064-0.001 0.127-0.002 0.193-0.003 0.214 0.026 0.327 0.080 0.498 0.21 0.087 0.119 0.087 0.119 0.148 0.246 0.021 0.042 0.042 0.084 0.064 0.127 0.044 0.15 0.025 0.231-0.025 0.377-0.018-0.071-0.036-0.142-0.055-0.215-0.023-0.073-0.046-0.147-0.070-0.223-0.041-0.021-0.082-0.041-0.125-0.063-0.045-0.103-0.087-0.207-0.125-0.313-0.128 0.009-0.255 0.018-0.383 0.027-0.071 0.005-0.142 0.010-0.215 0.015-0.199 0.018-0.393 0.047-0.589 0.082 0.137-0.275 0.404-0.268 0.684-0.27z"></path>
<path fill="#e4eefd" style="fill: var(--color16, #e4eefd)" d="M31.813 24.938c0.213 0.223 0.209 0.397 0.206 0.698-0 0.043-0.001 0.085-0.001 0.129-0.001 0.136-0.003 0.271-0.006 0.407-0.001 0.092-0.002 0.184-0.003 0.277-0.002 0.226-0.005 0.451-0.009 0.677-0.021 0-0.041 0-0.063 0-0.149-1.561-0.149-1.561-0.125-2.188z"></path>
<path fill="#d8e5fa" style="fill: var(--color17, #d8e5fa)" d="M22.125 2.063c-0.037 0.017-0.075 0.034-0.113 0.051-0.136 0.064-0.136 0.064-0.215 0.158-0.15 0.142-0.317 0.232-0.496 0.334-0.068 0.039-0.136 0.078-0.206 0.118-0.052 0.029-0.104 0.059-0.157 0.089 0.16-0.357 0.473-0.571 0.813-0.75 0.222-0.076 0.222-0.076 0.375 0z"></path>
<path fill="#ddeafd" style="fill: var(--color18, #ddeafd)" d="M0.125 25.688c0.021 0 0.041 0 0.063 0 0.028 0.733-0.055 1.459-0.125 2.188-0.021 0-0.041 0-0.063 0-0.002-0.249-0.003-0.497-0.004-0.746-0.001-0.071-0.001-0.142-0.002-0.215-0-0.067-0-0.135-0.001-0.204-0-0.063-0.001-0.125-0.001-0.189 0.007-0.145 0.007-0.145 0.070-0.207 0.015-0.105 0.026-0.211 0.035-0.316 0.005-0.057 0.010-0.115 0.016-0.174 0.004-0.044 0.008-0.089 0.011-0.135z"></path>
<path fill="#9dc3fd" style="fill: var(--color19, #9dc3fd)" d="M20.625 1.313c0.041 0.021 0.082 0.041 0.125 0.063-0.206 0.227-0.413 0.454-0.625 0.688-0.021-0.083-0.041-0.165-0.063-0.25 0.186-0.165 0.371-0.33 0.563-0.5z"></path>
</symbol>

<!-- Notes Blank (Background & Pin only) -->
<symbol id="icon-notes-blank" viewBox="0 0 32 32">
<path style="fill: var(--color1, #d2dff3)" d="M22.57 0.734c0.062-0.001 0.124-0.003 0.188-0.004 0.959-0.005 1.673 0.378 2.366 1.020 0.563 0.595 0.897 1.363 0.883 2.184-0.001 0.043-0.001 0.085-0.002 0.13-0.001 0.104-0.004 0.208-0.006 0.312 0.036-0.003 0.072-0.006 0.109-0.010 0.378-0.033 0.756-0.065 1.135-0.097 0.141-0.012 0.282-0.024 0.422-0.036 0.203-0.018 0.407-0.035 0.61-0.052 0.062-0.005 0.124-0.011 0.188-0.017 1.111-0.093 1.111-0.093 1.414 0.056 0.258 0.333 0.27 0.794 0.303 1.202 0.005 0.052 0.009 0.104 0.014 0.158 0.015 0.172 0.029 0.344 0.044 0.516 0.011 0.122 0.021 0.244 0.032 0.366 0.028 0.322 0.055 0.643 0.083 0.965 0.027 0.319 0.055 0.639 0.082 0.958 0.032 0.375 0.065 0.75 0.097 1.124 0.083 0.962 0.169 1.924 0.258 2.885 0.063 0.69 0.124 1.381 0.185 2.071 0.004 0.042 0.007 0.084 0.011 0.128 0.196 2.213 0.383 4.427 0.57 6.641 0.006 0.070 0.012 0.14 0.018 0.212 0.033 0.391 0.066 0.781 0.099 1.172 0.010 0.118 0.020 0.235 0.030 0.353 0.027 0.31 0.052 0.62 0.076 0.93 0.005 0.066 0.011 0.131 0.016 0.199 0.010 0.126 0.020 0.252 0.029 0.378 0.005 0.057 0.009 0.113 0.014 0.172 0.004 0.050 0.008 0.099 0.012 0.151 0.026 0.149 0.079 0.255 0.149 0.387 0.015 0.149 0.015 0.149 0.014 0.315 0 0.063-0 0.125-0 0.19-0.001 0.067-0.001 0.134-0.002 0.203-0 0.104-0 0.104-0.001 0.209-0.001 0.22-0.002 0.441-0.004 0.661-0.001 0.149-0.001 0.299-0.002 0.448-0.001 0.366-0.003 0.732-0.006 1.099-0.243 0.132-0.437 0.212-0.712 0.236-0.102 0.009-0.102 0.009-0.207 0.019-0.076 0.006-0.151 0.012-0.229 0.019-0.126 0.011-0.253 0.023-0.379 0.034-0.147 0.013-0.294 0.026-0.441 0.038-0.401 0.034-0.801 0.070-1.202 0.107-0.674 0.061-1.349 0.121-2.023 0.18-0.34 0.030-0.679 0.061-1.019 0.092-0.063 0.006-0.126 0.012-0.19 0.018-0.117 0.011-0.234 0.022-0.35 0.033-0.271 0.025-0.537 0.043-0.81 0.037-0.003 0.047-0.006 0.095-0.009 0.143-0.013 0.215-0.028 0.431-0.042 0.646-0.007 0.112-0.007 0.112-0.013 0.225-0.005 0.072-0.010 0.144-0.015 0.218-0.004 0.066-0.009 0.132-0.013 0.2-0.045 0.264-0.114 0.49-0.338 0.652-0.518 0.156-1.171 0.023-1.703-0.015-0.074-0.005-0.149-0.010-0.226-0.015-0.45-0.031-0.897-0.076-1.345-0.13-0.516-0.063-1.033-0.113-1.551-0.163-0.166-0.016-0.333-0.032-0.499-0.049-0.558-0.054-1.113-0.097-1.673-0.119-0.46-0.019-0.907-0.060-1.364-0.122-0.53-0.070-1.065-0.107-1.597-0.15-0.201-0.017-0.403-0.034-0.604-0.051-1.117-0.093-2.183-0.099-3.297 0.011-0.532 0.052-1.064 0.101-1.599 0.115-0.073 0.002-0.146 0.004-0.221 0.006-0.256-0.035-0.386-0.106-0.579-0.278-0.055-0.203-0.055-0.203-0.063-0.375-0.063-0.003-0.126-0.007-0.192-0.010-0.629-0.035-1.257-0.080-1.885-0.134-0.148-0.013-0.296-0.025-0.444-0.037-0.096-0.008-0.192-0.016-0.288-0.024-0.043-0.004-0.087-0.007-0.131-0.011-0.201-0.017-0.401-0.038-0.602-0.064-0.367-0.047-0.735-0.073-1.104-0.103-0.162-0.013-0.325-0.027-0.487-0.040-0.255-0.021-0.51-0.042-0.765-0.063-0.247-0.020-0.494-0.040-0.74-0.061-0.076-0.006-0.153-0.012-0.232-0.018-0.071-0.006-0.142-0.012-0.215-0.018-0.062-0.005-0.125-0.010-0.189-0.015-0.162-0.026-0.273-0.070-0.414-0.151-0.002-0.39-0.003-0.781-0.003-1.172-0-0.133-0.001-0.266-0.001-0.399-0.001-0.191-0.001-0.381-0.001-0.572-0-0.060-0.001-0.12-0.001-0.181 0-0.055 0-0.11 0-0.167-0-0.049-0-0.097-0-0.148 0.008-0.112 0.008-0.112 0.070-0.174 0.014-0.101 0.025-0.203 0.033-0.305 0.005-0.063 0.011-0.125 0.016-0.19 0.005-0.066 0.011-0.132 0.016-0.2 0.006-0.065 0.011-0.129 0.017-0.196 0.023-0.267 0.045-0.532 0.041-0.8 0-0.184 0-0.184 0.063-0.372 0.013-0.097 0.023-0.194 0.031-0.291 0.005-0.060 0.011-0.12 0.016-0.181 0.006-0.066 0.011-0.131 0.017-0.199 0.006-0.069 0.012-0.138 0.019-0.209 0.020-0.229 0.040-0.459 0.060-0.688 0.014-0.159 0.028-0.319 0.042-0.478 0.029-0.335 0.058-0.669 0.087-1.004 0.033-0.386 0.067-0.771 0.101-1.157 0.033-0.372 0.065-0.744 0.097-1.116 0.014-0.158 0.027-0.315 0.041-0.473 0.019-0.221 0.038-0.442 0.057-0.664 0.006-0.065 0.011-0.129 0.017-0.196 0.029-0.348 0.043-0.69 0.035-1.040 0.004-0.117 0.004-0.117 0.067-0.18 0.012-0.179 0.021-0.356 0.027-0.535 0.021-0.466 0.064-0.92 0.126-1.383 0.043-0.326 0.074-0.653 0.104-0.981 0.005-0.056 0.011-0.113 0.017-0.171 0.030-0.33 0.042-0.655 0.034-0.986 0.004-0.132 0.004-0.132 0.067-0.319 0.018-0.154 0.033-0.308 0.046-0.463 0.004-0.047 0.008-0.094 0.013-0.142 0.014-0.156 0.027-0.311 0.041-0.467 0.010-0.109 0.019-0.217 0.029-0.326 0.025-0.287 0.050-0.573 0.075-0.86 0.025-0.289 0.051-0.578 0.076-0.868 0.106-1.204 0.106-1.204 0.207-2.409 0.021-0.24 0.047-0.48 0.076-0.719 0.005-0.046 0.010-0.091 0.016-0.139 0.022-0.191 0.048-0.362 0.109-0.545 0.52-0.403 1.408-0.178 2.023-0.116 0.121 0.012 0.241 0.023 0.362 0.035 0.128 0.012 0.256 0.025 0.384 0.038 0.27 0.027 0.541 0.052 0.811 0.078 0.046 0.004 0.092 0.009 0.14 0.013 0.094 0.009 0.189 0.018 0.283 0.027 0.628 0.059 1.255 0.119 1.883 0.181 2.945 0.3 2.945 0.3 5.894 0.153 0.479-0.059 0.96-0.092 1.441-0.13 0.275-0.022 0.551-0.046 0.826-0.070 0.334-0.029 0.667-0.058 1.001-0.086 0.278-0.023 0.555-0.047 0.833-0.071 0.104-0.009 0.208-0.018 0.313-0.026 0.143-0.012 0.287-0.024 0.43-0.037 0.081-0.007 0.162-0.014 0.246-0.021 0.206-0.018 0.206-0.018 0.383-0.155-0.006-0.047-0.012-0.094-0.018-0.143-0.108-1.032 0.022-1.876 0.65-2.723 0.715-0.841 1.599-1.27 2.688-1.275zM21.438 2.438c-0.072 0.039-0.072 0.039-0.145 0.078-0.422 0.27-0.652 0.731-0.77 1.21-0.089 0.598 0.002 1.14 0.364 1.634 0.374 0.446 0.815 0.778 1.398 0.859 0.452 0.041 0.452 0.041 0.852-0.137 0.103-0.148 0.172-0.289 0.238-0.456 0.020-0.044 0.040-0.088 0.061-0.134 0.159-0.399 0.172-0.816 0.189-1.241 0.004-0.064 0.008-0.128 0.012-0.195 0.028-0.71-0.247-1.345-0.637-1.93-0.571-0.102-1.063 0.044-1.563 0.313z"></path>
<path style="fill: var(--color2, #478ffe)" d="M22.57 0.734c0.062-0.001 0.124-0.003 0.188-0.004 0.959-0.005 1.673 0.378 2.366 1.020 0.563 0.595 0.897 1.363 0.883 2.184-0.001 0.043-0.001 0.085-0.002 0.13-0.001 0.104-0.004 0.208-0.006 0.312 0.036-0.003 0.072-0.006 0.109-0.010 0.378-0.033 0.756-0.065 1.135-0.097 0.141-0.012 0.282-0.024 0.422-0.036 0.203-0.018 0.407-0.035 0.61-0.052 0.062-0.005 0.124-0.011 0.188-0.017 1.111-0.093 1.111-0.093 1.414 0.056 0.258 0.333 0.27 0.794 0.303 1.202 0.005 0.052 0.009 0.104 0.014 0.158 0.015 0.172 0.029 0.344 0.044 0.516 0.011 0.122 0.021 0.244 0.032 0.366 0.028 0.322 0.055 0.643 0.083 0.965 0.027 0.319 0.055 0.639 0.082 0.958 0.032 0.375 0.065 0.75 0.097 1.124 0.083 0.962 0.169 1.924 0.258 2.885 0.063 0.69 0.124 1.381 0.185 2.071 0.004 0.042 0.007 0.084 0.011 0.128 0.196 2.213 0.383 4.427 0.57 6.641 0.006 0.070 0.012 0.14 0.018 0.212 0.033 0.391 0.066 0.781 0.099 1.172 0.010 0.118 0.020 0.235 0.030 0.353 0.027 0.31 0.052 0.62 0.076 0.93 0.005 0.066 0.011 0.131 0.016 0.199 0.010 0.126 0.020 0.252 0.029 0.378 0.005 0.057 0.009 0.113 0.014 0.172 0.004 0.050 0.008 0.099 0.012 0.151 0.026 0.149 0.079 0.255 0.149 0.387 0.015 0.149 0.015 0.149 0.014 0.315 0 0.063-0 0.125-0 0.19-0.001 0.067-0.001 0.134-0.002 0.203-0 0.104-0 0.104-0.001 0.209-0.001 0.22-0.002 0.441-0.004 0.661-0.001 0.149-0.001 0.299-0.002 0.448-0.001 0.366-0.003 0.732-0.006 1.099-0.243 0.132-0.437 0.212-0.712 0.236-0.102 0.009-0.102 0.009-0.207 0.019-0.076 0.006-0.151 0.012-0.229 0.019-0.126 0.011-0.253 0.023-0.379 0.034-0.147 0.013-0.294 0.026-0.441 0.038-0.401 0.034-0.801 0.070-1.202 0.107-0.674 0.061-1.349 0.121-2.023 0.18-0.34 0.030-0.679 0.061-1.019 0.092-0.063 0.006-0.126 0.012-0.19 0.018-0.117 0.011-0.234 0.022-0.35 0.033-0.271 0.025-0.537 0.043-0.81 0.037-0.003 0.047-0.006 0.095-0.009 0.143-0.013 0.215-0.028 0.431-0.042 0.646-0.007 0.112-0.007 0.112-0.013 0.225-0.005 0.072-0.010 0.144-0.015 0.218-0.004 0.066-0.009 0.132-0.013 0.2-0.045 0.264-0.114 0.49-0.338 0.652-0.518 0.156-1.171 0.023-1.703-0.015-0.074-0.005-0.149-0.010-0.226-0.015-0.45-0.031-0.897-0.076-1.345-0.13-0.516-0.063-1.033-0.113-1.551-0.163-0.166-0.016-0.333-0.032-0.499-0.049-0.558-0.054-1.113-0.097-1.673-0.119-0.46-0.019-0.907-0.060-1.364-0.122-0.53-0.070-1.065-0.107-1.597-0.15-0.201-0.017-0.403-0.034-0.604-0.051-1.117-0.093-2.183-0.099-3.297 0.011-0.532 0.052-1.064 0.101-1.599 0.115-0.073 0.002-0.146 0.004-0.221 0.006-0.256-0.035-0.386-0.106-0.579-0.278-0.055-0.203-0.055-0.203-0.063-0.375-0.063-0.003-0.126-0.007-0.192-0.010-0.629-0.035-1.257-0.080-1.885-0.134-0.148-0.013-0.296-0.025-0.444-0.037-0.096-0.008-0.192-0.016-0.288-0.024-0.043-0.004-0.087-0.007-0.131-0.011-0.201-0.017-0.401-0.038-0.602-0.064-0.367-0.047-0.735-0.073-1.104-0.103-0.162-0.013-0.325-0.027-0.487-0.040-0.255-0.021-0.51-0.042-0.765-0.063-0.247-0.020-0.494-0.040-0.74-0.061-0.076-0.006-0.153-0.012-0.232-0.018-0.071-0.006-0.142-0.012-0.215-0.018-0.062-0.005-0.125-0.010-0.189-0.015-0.162-0.026-0.273-0.070-0.414-0.151-0.002-0.39-0.003-0.781-0.003-1.172-0-0.133-0.001-0.266-0.001-0.399-0.001-0.191-0.001-0.381-0.001-0.572-0-0.060-0.001-0.12-0.001-0.181 0-0.055 0-0.11 0-0.167-0-0.049-0-0.097-0-0.148 0.008-0.112 0.008-0.112 0.070-0.174 0.014-0.101 0.025-0.203 0.033-0.305 0.005-0.063 0.011-0.125 0.016-0.19 0.005-0.066 0.011-0.132 0.016-0.2 0.006-0.065 0.011-0.129 0.017-0.196 0.023-0.267 0.045-0.532 0.041-0.8 0-0.184 0-0.184 0.063-0.372 0.013-0.097 0.023-0.194 0.031-0.291 0.005-0.060 0.011-0.12 0.016-0.181 0.006-0.066 0.011-0.131 0.017-0.199 0.006-0.069 0.012-0.138 0.019-0.209 0.020-0.229 0.040-0.459 0.060-0.688 0.014-0.159 0.028-0.319 0.042-0.478 0.029-0.335 0.058-0.669 0.087-1.004 0.033-0.386 0.067-0.771 0.101-1.157 0.033-0.372 0.065-0.744 0.097-1.116 0.014-0.158 0.027-0.315 0.041-0.473 0.019-0.221 0.038-0.442 0.057-0.664 0.006-0.065 0.011-0.129 0.017-0.196 0.029-0.348 0.043-0.69 0.035-1.040 0.004-0.117 0.004-0.117 0.067-0.18 0.012-0.179 0.021-0.356 0.027-0.535 0.021-0.466 0.064-0.92 0.126-1.383 0.043-0.326 0.074-0.653 0.104-0.981 0.005-0.056 0.011-0.113 0.017-0.171 0.030-0.33 0.042-0.655 0.034-0.986 0.004-0.132 0.004-0.132 0.067-0.319 0.018-0.154 0.033-0.308 0.046-0.463 0.004-0.047 0.008-0.094 0.013-0.142 0.014-0.156 0.027-0.311 0.041-0.467 0.010-0.109 0.019-0.217 0.029-0.326 0.025-0.287 0.050-0.573 0.075-0.86 0.025-0.289 0.051-0.578 0.076-0.868 0.106-1.204 0.106-1.204 0.207-2.409 0.021-0.24 0.047-0.48 0.076-0.719 0.005-0.046 0.010-0.091 0.016-0.139 0.022-0.191 0.048-0.362 0.109-0.545 0.52-0.403 1.408-0.178 2.023-0.116 0.121 0.012 0.241 0.023 0.362 0.035 0.128 0.012 0.256 0.025 0.384 0.038 0.27 0.027 0.541 0.052 0.811 0.078 0.046 0.004 0.092 0.009 0.14 0.013 0.094 0.009 0.189 0.018 0.283 0.027 0.628 0.059 1.255 0.119 1.883 0.181 2.945 0.3 2.945 0.3 5.894 0.153 0.479-0.059 0.96-0.092 1.441-0.13 0.275-0.022 0.551-0.046 0.826-0.070 0.334-0.029 0.667-0.058 1.001-0.086 0.278-0.023 0.555-0.047 0.833-0.071 0.104-0.009 0.208-0.018 0.313-0.026 0.143-0.012 0.287-0.024 0.43-0.037 0.081-0.007 0.162-0.014 0.246-0.021 0.206-0.018 0.206-0.018 0.383-0.155-0.006-0.047-0.012-0.094-0.018-0.143-0.108-1.032 0.022-1.876 0.65-2.723 0.715-0.841 1.599-1.27 2.688-1.275zM21.438 2.438c-0.072 0.039-0.072 0.039-0.145 0.078-0.422 0.27-0.652 0.731-0.77 1.21-0.089 0.598 0.002 1.14 0.364 1.634 0.374 0.446 0.815 0.778 1.398 0.859 0.452 0.041 0.452 0.041 0.852-0.137 0.103-0.148 0.172-0.289 0.238-0.456 0.020-0.044 0.040-0.088 0.061-0.134 0.159-0.399 0.172-0.816 0.189-1.241 0.004-0.064 0.008-0.128 0.012-0.195 0.028-0.71-0.247-1.345-0.637-1.93-0.571-0.102-1.063 0.044-1.563 0.313zM26.872 5.502c-0.788-0.018-0.788-0.018-1.491 0.259-0.108 0.159-0.182 0.312-0.256 0.489-0.16 0.176-0.16 0.176-0.313 0.313-0.053 0.050-0.106 0.101-0.16 0.152-0.59 0.481-1.295 0.685-2.043 0.684-0.078-0-0.078-0-0.157-0-0.537-0.011-0.991-0.14-1.452-0.418-0.169-0.118-0.169-0.118-0.308-0.096-0.169 0.069-0.263 0.164-0.391 0.294-0.051 0.051-0.102 0.102-0.154 0.155-0.054 0.056-0.109 0.111-0.165 0.168s-0.112 0.113-0.17 0.172c-0.149 0.151-0.298 0.301-0.447 0.452-0.21 0.213-0.42 0.425-0.631 0.638-0.112 0.113-0.224 0.226-0.336 0.34-0.076 0.077-0.076 0.077-0.153 0.155-0.044 0.045-0.089 0.090-0.135 0.137-0.192 0.182-0.354 0.189-0.616 0.184-0.119-0.017-0.119-0.017-0.244-0.115-0.092-0.223-0.103-0.349-0.063-0.59 0.082-0.114 0.082-0.114 0.189-0.233 0.040-0.044 0.080-0.087 0.121-0.133 0.208-0.22 0.42-0.434 0.635-0.646 0.070-0.069 0.070-0.069 0.141-0.14 0.147-0.146 0.294-0.292 0.441-0.438 0.195-0.194 0.391-0.388 0.586-0.582 0.045-0.045 0.090-0.089 0.137-0.135 0.041-0.041 0.082-0.082 0.125-0.124 0.036-0.036 0.073-0.072 0.11-0.109 0.085-0.073 0.085-0.073 0.078-0.147-0.452-0.017-0.876 0.023-1.323 0.093-0.312 0.041-0.622 0.059-0.936 0.073-0.182 0.008-0.358 0.020-0.537 0.051-0.235 0.038-0.469 0.057-0.706 0.073-0.049 0.004-0.097 0.007-0.148 0.011-0.105 0.008-0.21 0.015-0.315 0.023-0.281 0.020-0.561 0.041-0.842 0.062-0.057 0.004-0.115 0.008-0.174 0.013-0.541 0.040-1.082 0.081-1.622 0.125-0.096 0.008-0.192 0.015-0.288 0.023-0.457 0.036-0.912 0.076-1.367 0.137-0.867 0.112-1.74 0.168-2.611 0.238-0.215 0.017-0.43 0.034-0.645 0.052-0.16 0.013-0.32 0.026-0.48 0.038-0.072 0.006-0.144 0.012-0.218 0.018-0.063 0.005-0.126 0.010-0.191 0.015-0.166 0.014-0.166 0.014-0.346 0.081-0.011 0.564 0.024 1.117 0.075 1.678 0.008 0.089 0.016 0.178 0.024 0.267 0.021 0.234 0.042 0.468 0.064 0.702 0.021 0.23 0.042 0.461 0.062 0.691 0.027 0.305 0.055 0.609 0.083 0.914 0.145 1.601 0.284 3.202 0.423 4.803 0.021 0.238 0.042 0.476 0.062 0.714 0.031 0.352 0.061 0.704 0.092 1.056 0.059 0.678 0.118 1.355 0.177 2.033 0.301 3.453 0.301 3.453 0.427 4.9 0.036 0.419 0.073 0.837 0.109 1.256 0.027 0.309 0.054 0.618 0.081 0.927 0.016 0.184 0.032 0.369 0.048 0.553 0.010 0.12 0.021 0.24 0.031 0.36 0.032 0.362 0.067 0.721 0.116 1.081 0.087 0.002 0.174 0.003 0.262 0.004 0.073 0.001 0.073 0.001 0.147 0.002 0.152-0.002 0.152-0.002 0.29-0.035 0.212-0.040 0.424-0.057 0.639-0.072 0.095-0.007 0.19-0.014 0.286-0.021 0.050-0.004 0.101-0.007 0.153-0.011 0.276-0.020 0.552-0.041 0.828-0.062 0.087-0.007 0.087-0.007 0.176-0.013 0.633-0.049 1.266-0.102 1.899-0.157 0.059-0.005 0.117-0.010 0.177-0.015 0.369-0.032 0.737-0.064 1.106-0.096 0.33-0.029 0.66-0.057 0.99-0.086 0.553-0.048 1.106-0.096 1.66-0.144 0.773-0.067 1.546-0.134 2.318-0.202 1.437-0.125 2.874-0.25 4.311-0.375 0.212-0.019 0.425-0.037 0.637-0.056 0.249-0.022 0.497-0.043 0.746-0.065 0.090-0.008 0.18-0.016 0.27-0.023 0.539-0.047 1.076-0.102 1.613-0.169 0.497-0.057 0.996-0.091 1.495-0.129 0.11-0.008 0.219-0.017 0.329-0.025 0.264-0.020 0.528-0.041 0.792-0.061 0.015-0.544-0.031-1.073-0.090-1.613-0.008-0.080-0.017-0.16-0.026-0.243-0.042-0.409-0.042-0.409-0.103-0.815-0.034-0.22-0.052-0.437-0.066-0.66-0.003-0.044-0.006-0.088-0.009-0.134-0.006-0.095-0.012-0.19-0.018-0.285-0.010-0.151-0.019-0.302-0.029-0.454-0.028-0.43-0.056-0.859-0.083-1.289-0.017-0.263-0.034-0.527-0.051-0.79-0.006-0.1-0.013-0.199-0.019-0.299-0.031-0.494-0.069-0.978-0.167-1.464-0.036-0.184-0.051-0.366-0.062-0.552-0.007-0.108-0.007-0.108-0.014-0.218-0.004-0.075-0.009-0.15-0.013-0.227-0.010-0.161-0.021-0.321-0.031-0.482-0.005-0.080-0.010-0.159-0.016-0.242-0.028-0.407-0.063-0.814-0.098-1.22-0.037-0.427-0.064-0.853-0.084-1.28-0.017-0.181-0.043-0.341-0.080-0.518-0.123-0.651-0.13-1.323-0.166-1.984-0.037-0.657-0.082-1.308-0.179-1.959-0.125-0.847-0.172-1.7-0.225-2.554-0.015-0.24-0.030-0.481-0.046-0.721-0.010-0.148-0.019-0.296-0.028-0.444-0.032-0.502-0.095-0.995-0.172-1.492-0.418-0.008-0.835-0.003-1.253 0.002z"></path>
<path fill="currentColor" opacity="0.6" d="M3.063 6.125c0.484-0.013 0.961 0.030 1.442 0.077 0.136 0.013 0.273 0.026 0.409 0.039 0.726 0.069 0.726 0.069 1.023 0.135-0.021 0.062-0.041 0.124-0.063 0.188-0.058 0.914 0.062 1.835 0.144 2.744 0.015 0.173 0.031 0.346 0.046 0.519 0.032 0.368 0.065 0.736 0.098 1.104 0.048 0.532 0.095 1.064 0.142 1.595 0.069 0.784 0.139 1.568 0.209 2.353 0.132 1.481 0.262 2.963 0.391 4.445 0.022 0.257 0.045 0.515 0.067 0.772 0.072 0.823 0.144 1.646 0.215 2.468 0.006 0.067 0.012 0.134 0.018 0.204 0.078 0.898 0.156 1.796 0.234 2.693 0.022 0.259 0.045 0.518 0.067 0.777 0.026 0.299 0.052 0.598 0.078 0.897 0.009 0.109 0.019 0.218 0.028 0.328 0.013 0.149 0.026 0.298 0.038 0.447 0.004 0.043 0.008 0.086 0.011 0.131 0.018 0.217 0.029 0.431 0.025 0.649-0.477-0.033-0.953-0.068-1.429-0.107-0.048-0.004-0.096-0.008-0.146-0.012-0.198-0.016-0.395-0.033-0.593-0.049-0.527-0.044-1.053-0.084-1.581-0.113-0.404-0.022-0.801-0.064-1.201-0.125-0.517-0.075-1.029-0.13-1.551-0.156-0.002-0.126-0.003-0.253-0.004-0.379-0.001-0.070-0.001-0.141-0.002-0.213 0.006-0.22 0.006-0.22 0.035-0.417 0.038-0.272 0.059-0.543 0.079-0.817 0.008-0.111 0.016-0.222 0.024-0.332 0.012-0.173 0.025-0.346 0.037-0.519 0.012-0.168 0.024-0.336 0.036-0.504 0.004-0.051 0.007-0.103 0.011-0.156 0.015-0.204 0.033-0.403 0.066-0.606 0.036-0.22 0.048-0.438 0.057-0.66 0.004-0.094 0.009-0.188 0.014-0.282 0.003-0.073 0.003-0.073 0.007-0.148 0.043-0.882 0.117-1.748 0.243-2.623 0.112-0.809 0.156-1.623 0.198-2.438 0.002-0.049 0.005-0.098 0.008-0.148 0.002-0.049 0.005-0.098 0.008-0.148 0.039-0.762 0.116-1.51 0.225-2.265 0.112-0.809 0.156-1.623 0.198-2.438 0.002-0.049 0.005-0.098 0.008-0.149 0.002-0.049 0.005-0.098 0.008-0.148 0.039-0.76 0.115-1.507 0.224-2.26 0.099-0.725 0.149-1.454 0.18-2.185 0.036-0.724 0.131-1.444 0.217-2.164z"></path>
<path fill="currentColor" opacity="0.7" d="M28.667 5.374c0.051 0 0.101 0 0.153 0 0.058 0 0.058 0 0.117 0 0.129 1.239 0.256 2.476 0.334 3.719 0.030 0.464 0.075 0.922 0.134 1.384 0.051 0.415 0.078 0.832 0.109 1.249 0.031 0.402 0.068 0.802 0.113 1.203 0.044 0.391 0.072 0.779 0.090 1.172 0.018 0.41 0.054 0.814 0.106 1.222 0.058 0.467 0.092 0.935 0.128 1.404 0.031 0.402 0.068 0.802 0.113 1.203 0.044 0.391 0.072 0.779 0.090 1.172 0.018 0.41 0.054 0.814 0.106 1.221 0.058 0.467 0.092 0.935 0.128 1.404 0.031 0.402 0.068 0.802 0.113 1.203 0.049 0.441 0.077 0.88 0.096 1.322 0.015 0.316 0.045 0.626 0.087 0.939 0.096 0.724 0.104 1.455 0.125 2.184-0.268 0.021-0.536 0.041-0.813 0.063-0.011-0.111-0.011-0.111-0.022-0.224-0.027-0.275-0.054-0.549-0.081-0.824-0.012-0.119-0.023-0.237-0.035-0.356-0.017-0.171-0.034-0.342-0.051-0.513-0.005-0.053-0.010-0.105-0.016-0.16-0.005-0.050-0.010-0.1-0.015-0.152-0.004-0.044-0.009-0.087-0.013-0.132-0.013-0.106-0.030-0.211-0.048-0.316-0.035-0.219-0.051-0.434-0.065-0.655-0.003-0.044-0.006-0.088-0.009-0.134-0.006-0.095-0.012-0.19-0.018-0.285-0.010-0.151-0.019-0.302-0.029-0.454-0.028-0.43-0.056-0.859-0.083-1.289-0.017-0.263-0.034-0.527-0.051-0.79-0.006-0.1-0.013-0.199-0.019-0.299-0.031-0.494-0.069-0.978-0.167-1.464-0.036-0.184-0.051-0.366-0.062-0.552-0.005-0.072-0.009-0.144-0.014-0.218s-0.009-0.15-0.013-0.227c-0.010-0.161-0.021-0.321-0.031-0.482-0.005-0.080-0.010-0.159-0.016-0.242-0.028-0.407-0.063-0.814-0.098-1.22-0.037-0.427-0.064-0.853-0.084-1.28-0.017-0.181-0.043-0.341-0.080-0.518-0.123-0.651-0.13-1.323-0.166-1.984-0.037-0.657-0.082-1.306-0.179-1.957-0.127-0.858-0.174-1.722-0.229-2.587-0.016-0.245-0.032-0.491-0.048-0.736-0.010-0.151-0.020-0.302-0.029-0.454-0.004-0.068-0.009-0.136-0.013-0.206-0.004-0.059-0.007-0.119-0.011-0.18-0.017-0.185-0.047-0.365-0.078-0.548-0.007-0.167-0.003-0.332 0-0.5-0.103 0-0.206 0-0.313 0 0-0.021 0-0.041 0-0.063 0.288-0.037 0.565-0.064 0.855-0.063z"></path>
<path fill="#85aff9" style="fill: var(--color8, #85aff9)" d="M23.5 2.063c0.651 0.367 1.076 0.854 1.313 1.563 0.083 0.8-0.051 1.368-0.546 2.018-0.237 0.257-0.508 0.412-0.829 0.545-0.047 0.022-0.094 0.044-0.142 0.067-0.563 0.19-1.23 0.099-1.756-0.153-0.375-0.231-0.643-0.496-0.79-0.914 0.064 0.066 0.064 0.066 0.129 0.133 0.061 0.060 0.122 0.12 0.184 0.18 0.032 0.032 0.065 0.063 0.098 0.095 0.49 0.449 0.97 0.588 1.63 0.569 0.206-0.023 0.206-0.023 0.332-0.132 0.087-0.133 0.139-0.257 0.189-0.407 0.019-0.043 0.037-0.086 0.057-0.13 0.161-0.402 0.176-0.817 0.193-1.245 0.004-0.064 0.008-0.128 0.012-0.195 0.016-0.405-0.044-0.715-0.201-1.088-0.061-0.155-0.061-0.155-0.092-0.327-0.015-0.070-0.015-0.070-0.031-0.14-0.041-0.021-0.082-0.041-0.125-0.063-0.045-0.103-0.087-0.207-0.125-0.313-0.582 0.010-1.044 0.109-1.563 0.375-0.043 0.021-0.086 0.042-0.131 0.064-0.372 0.218-0.528 0.611-0.682 0.999-0.115 0.457-0.067 0.914 0 1.375-0.125-0.063-0.125-0.063-0.163-0.162-0.11-0.664-0.076-1.32 0.288-1.9 0.667-0.83 1.718-1.229 2.75-0.813z"></path>
<path fill="#d7e6fe" style="fill: var(--color9, #d7e6fe)" d="M20.625 1.313c0.041 0.021 0.082 0.041 0.125 0.063-0.098 0.108-0.195 0.216-0.293 0.324-0.054 0.060-0.109 0.12-0.165 0.182-0.108 0.117-0.219 0.231-0.334 0.341-0.501 0.524-0.628 1.266-0.646 1.965 0.012 0.293 0.036 0.583 0.063 0.875-0.797 0.117-1.596 0.191-2.398 0.262-0.069 0.006-0.138 0.012-0.208 0.019-0.364 0.033-0.727 0.065-1.091 0.097-0.372 0.033-0.744 0.067-1.116 0.101-0.289 0.026-0.579 0.052-0.868 0.077-0.137 0.012-0.274 0.025-0.411 0.037-0.814 0.075-1.593 0.104-2.408 0.031-0.132-0.011-0.264-0.022-0.396-0.033-0.429-0.036-0.858-0.074-1.288-0.112-0.216-0.019-0.431-0.038-0.647-0.057-0.639-0.056-1.277-0.113-1.916-0.17-0.499-0.044-0.997-0.089-1.496-0.133-0.214-0.019-0.428-0.038-0.642-0.057-0.238-0.021-0.476-0.042-0.714-0.063-0.070-0.006-0.139-0.013-0.211-0.019-0.188-0.016-0.376-0.030-0.565-0.043-0.058-0.005-0.116-0.010-0.176-0.015-0.055-0.003-0.109-0.006-0.166-0.009-0.047-0.003-0.095-0.006-0.144-0.009-0.225 0.053-0.313 0.165-0.452 0.345-0.041 0.172-0.063 0.314-0.074 0.488-0.004 0.049-0.008 0.098-0.013 0.148-0.009 0.107-0.018 0.214-0.026 0.32-0.013 0.17-0.028 0.34-0.044 0.511-0.036 0.387-0.070 0.775-0.103 1.162-0.013 0.148-0.026 0.296-0.039 0.444-0.035 0.398-0.070 0.796-0.104 1.194-0.033 0.375-0.065 0.75-0.098 1.125-0.065 0.742-0.13 1.484-0.194 2.226-0.063 0.72-0.126 1.44-0.188 2.16-0.006 0.067-0.006 0.067-0.012 0.135-0.020 0.223-0.039 0.447-0.059 0.67-0.161 1.847-0.323 3.695-0.484 5.542-0.021 0-0.041 0-0.063 0-0.009-0.554 0.016-1.097 0.068-1.649 0.007-0.076 0.014-0.153 0.021-0.232 0.022-0.242 0.044-0.483 0.067-0.725s0.045-0.484 0.067-0.727c0.014-0.15 0.028-0.3 0.042-0.45 0.034-0.37 0.054-0.732 0.044-1.104 0.004-0.114 0.004-0.114 0.066-0.177 0.012-0.179 0.021-0.356 0.027-0.535 0.021-0.466 0.064-0.92 0.126-1.383 0.043-0.326 0.074-0.653 0.104-0.981 0.005-0.056 0.011-0.113 0.017-0.171 0.030-0.33 0.042-0.655 0.034-0.986 0.004-0.132 0.004-0.132 0.067-0.319 0.018-0.154 0.033-0.308 0.046-0.463 0.004-0.047 0.008-0.094 0.013-0.142 0.014-0.156 0.027-0.311 0.041-0.467 0.010-0.109 0.019-0.217 0.029-0.326 0.025-0.287 0.050-0.573 0.075-0.86 0.025-0.289 0.051-0.578 0.076-0.868 0.106-1.204 0.106-1.204 0.207-2.409 0.021-0.24 0.047-0.48 0.076-0.719 0.005-0.046 0.010-0.091 0.016-0.139 0.022-0.191 0.048-0.362 0.109-0.545 0.52-0.403 1.408-0.178 2.023-0.116 0.121 0.012 0.241 0.023 0.362 0.035 0.128 0.012 0.256 0.025 0.384 0.038 0.27 0.027 0.541 0.052 0.811 0.078 0.046 0.004 0.092 0.009 0.14 0.013 0.094 0.009 0.189 0.018 0.283 0.027 0.628 0.059 1.255 0.119 1.883 0.181 2.945 0.3 2.945 0.3 5.894 0.153 0.479-0.059 0.96-0.092 1.441-0.13 0.275-0.022 0.551-0.046 0.826-0.070 0.334-0.029 0.667-0.058 1.001-0.086 0.278-0.023 0.555-0.047 0.833-0.071 0.104-0.009 0.208-0.018 0.313-0.026 0.143-0.012 0.287-0.024 0.43-0.037 0.081-0.007 0.162-0.014 0.246-0.021 0.206-0.018 0.206-0.018 0.383-0.155-0.006-0.047-0.012-0.094-0.018-0.143-0.108-1.032 0.022-1.876 0.65-2.723 0.715-0.841 1.599-1.27 2.688-1.275z"></path>
<path fill="#9ebef6" style="fill: var(--color10, #9ebef6)" d="M23.188 29.188c0.008 0.548 0.008 0.548-0.063 0.813-1.074-0.028-2.137-0.117-3.206-0.227-0.346-0.035-0.693-0.067-1.040-0.098-0.058-0.005-0.116-0.010-0.176-0.016-0.13-0.012-0.26-0.023-0.39-0.035 0-0.021 0-0.041 0-0.063 2.578-0.249 2.578-0.249 3.492-0.328 0.055-0.005 0.11-0.010 0.167-0.015 0.406-0.034 0.809-0.037 1.216-0.032z"></path>
<path fill="#c9ddfb" style="fill: var(--color11, #c9ddfb)" d="M22.434 1.984c0.075-0.002 0.151-0.003 0.228-0.005 0.232 0.022 0.343 0.065 0.526 0.208 0.087 0.119 0.087 0.119 0.148 0.246 0.021 0.042 0.042 0.084 0.064 0.127 0.044 0.15 0.025 0.231-0.025 0.377-0.018-0.071-0.036-0.142-0.055-0.215-0.023-0.073-0.046-0.147-0.070-0.223-0.041-0.021-0.082-0.041-0.125-0.063-0.045-0.103-0.087-0.207-0.125-0.313-0.582 0.010-1.044 0.109-1.563 0.375-0.043 0.021-0.086 0.042-0.131 0.064-0.372 0.218-0.528 0.611-0.682 0.999-0.115 0.457-0.067 0.914 0 1.375-0.125-0.063-0.125-0.063-0.163-0.162-0.11-0.664-0.076-1.32 0.288-1.9 0.464-0.577 0.94-0.881 1.684-0.891z"></path>
<path fill="#d6e6fe" style="fill: var(--color12, #d6e6fe)" d="M20.625 1.313c0.062 0.031 0.062 0.031 0.125 0.063-0.098 0.108-0.195 0.216-0.293 0.324-0.054 0.060-0.109 0.12-0.165 0.182-0.108 0.117-0.219 0.231-0.334 0.341-0.501 0.524-0.628 1.266-0.646 1.965 0.012 0.293 0.034 0.583 0.063 0.875-1.029 0.153-2.084 0.29-3.125 0.25 0-0.021 0-0.041 0-0.063 0.035-0.003 0.070-0.006 0.105-0.009 0.362-0.030 0.724-0.060 1.086-0.091 0.135-0.011 0.27-0.023 0.405-0.034 0.194-0.016 0.388-0.033 0.582-0.049 0.061-0.005 0.121-0.010 0.183-0.015 0.084-0.008 0.084-0.008 0.171-0.015 0.050-0.004 0.099-0.008 0.15-0.013 0.148-0.019 0.148-0.019 0.317-0.15-0.006-0.047-0.012-0.094-0.018-0.143-0.107-1.027 0.016-1.896 0.661-2.729 0.226-0.258 0.461-0.48 0.732-0.69z"></path>
<path fill="#d5e4fa" style="fill: var(--color13, #d5e4fa)" d="M20.75 5.188c0.043 0.044 0.085 0.088 0.129 0.133 0.061 0.060 0.122 0.12 0.184 0.18 0.032 0.032 0.065 0.063 0.098 0.095 0.503 0.46 0.96 0.557 1.629 0.563 0.239-0.038 0.312-0.096 0.46-0.283-0.067 0.182-0.111 0.299-0.25 0.438-0.591 0.077-1.113-0.005-1.625-0.313-0.298-0.235-0.498-0.452-0.625-0.813z"></path>
<path fill="#dce9fd" style="fill: var(--color14, #dce9fd)" d="M20.625 1.313c0.041 0.021 0.082 0.041 0.125 0.063-0.098 0.108-0.195 0.216-0.293 0.324-0.054 0.060-0.109 0.12-0.165 0.182-0.108 0.117-0.219 0.231-0.334 0.341-0.318 0.332-0.478 0.774-0.584 1.215-0.041 0-0.082 0-0.125 0 0.171-0.891 0.664-1.575 1.375-2.125z"></path>
<path fill="#ecf3fb" style="fill: var(--color15, #ecf3fb)" d="M22.496 1.98c0.064-0.001 0.127-0.002 0.193-0.003 0.214 0.026 0.327 0.080 0.498 0.21 0.087 0.119 0.087 0.119 0.148 0.246 0.021 0.042 0.042 0.084 0.064 0.127 0.044 0.15 0.025 0.231-0.025 0.377-0.018-0.071-0.036-0.142-0.055-0.215-0.023-0.073-0.046-0.147-0.070-0.223-0.041-0.021-0.082-0.041-0.125-0.063-0.045-0.103-0.087-0.207-0.125-0.313-0.128 0.009-0.255 0.018-0.383 0.027-0.071 0.005-0.142 0.010-0.215 0.015-0.199 0.018-0.393 0.047-0.589 0.082 0.137-0.275 0.404-0.268 0.684-0.27z"></path>
<path fill="#e4eefd" style="fill: var(--color16, #e4eefd)" d="M31.813 24.938c0.213 0.223 0.209 0.397 0.206 0.698-0 0.043-0.001 0.085-0.001 0.129-0.001 0.136-0.003 0.271-0.006 0.407-0.001 0.092-0.002 0.184-0.003 0.277-0.002 0.226-0.005 0.451-0.009 0.677-0.021 0-0.041 0-0.063 0-0.149-1.561-0.149-1.561-0.125-2.188z"></path>
<path fill="#d8e5fa" style="fill: var(--color17, #d8e5fa)" d="M22.125 2.063c-0.037 0.017-0.075 0.034-0.113 0.051-0.136 0.064-0.136 0.064-0.215 0.158-0.15 0.142-0.317 0.232-0.496 0.334-0.068 0.039-0.136 0.078-0.206 0.118-0.052 0.029-0.104 0.059-0.157 0.089 0.16-0.357 0.473-0.571 0.813-0.75 0.222-0.076 0.222-0.076 0.375 0z"></path>
<path fill="#ddeafd" style="fill: var(--color18, #ddeafd)" d="M0.125 25.688c0.021 0 0.041 0 0.063 0 0.028 0.733-0.055 1.459-0.125 2.188-0.021 0-0.041 0-0.063 0-0.002-0.249-0.003-0.497-0.004-0.746-0.001-0.071-0.001-0.142-0.002-0.215-0-0.067-0-0.135-0.001-0.204-0-0.063-0.001-0.125-0.001-0.189 0.007-0.145 0.007-0.145 0.070-0.207 0.015-0.105 0.026-0.211 0.035-0.316 0.005-0.057 0.010-0.115 0.016-0.174 0.004-0.044 0.008-0.089 0.011-0.135z"></path>
<path fill="#9dc3fd" style="fill: var(--color19, #9dc3fd)" d="M20.625 1.313c0.041 0.021 0.082 0.041 0.125 0.063-0.206 0.227-0.413 0.454-0.625 0.688-0.021-0.083-0.041-0.165-0.063-0.25 0.186-0.165 0.371-0.33 0.563-0.5z"></path>
</symbol>

<!-- Calendar -->
<symbol id="icon-calendar" viewBox="0 0 32 32">
<path d="M10 12h4v4h-4zM16 12h4v4h-4zM22 12h4v4h-4zM4 24h4v4h-4zM10 24h4v4h-4zM16 24h4v4h-4zM10 18h4v4h-4zM16 18h4v4h-4zM22 18h4v4h-4zM4 18h4v4h-4zM26 0v2h-4v-2h-14v2h-4v-2h-4v32h30v-32h-4zM28 30h-26v-22h26v22z"></path>
</symbol>
</svg>
